<svg width="39" height="25" viewBox="0 0 39 25" fill="none" xmlns="http://www.w3.org/2000/svg">
<path d="M3.01234 24.6525C2.35391 25.0895 1.68691 25.1143 1.01136 24.7271C0.33712 24.3412 0 23.7448 0 22.938V2.06252C0 1.25574 0.33712 0.658718 1.01136 0.271462C1.68691 -0.114449 2.35391 -0.088901 3.01234 0.348107L19.1111 10.7859C19.7037 11.1893 20 11.7607 20 12.5003C20 13.2398 19.7037 13.8113 19.1111 14.2147L3.01234 24.6525Z" fill="white"/>
<path d="M22.0123 24.6525C21.3539 25.0895 20.6869 25.1143 20.0114 24.7271C19.3371 24.3412 19 23.7448 19 22.938V2.06252C19 1.25574 19.3371 0.658718 20.0114 0.271462C20.6869 -0.114449 21.3539 -0.088901 22.0123 0.348107L38.1111 10.7859C38.7037 11.1893 39 11.7607 39 12.5003C39 13.2398 38.7037 13.8113 38.1111 14.2147L22.0123 24.6525Z" fill="white"/>
</svg>
