<svg width="31" height="31" viewBox="0 0 31 31" fill="none" xmlns="http://www.w3.org/2000/svg">
<path fill-rule="evenodd" clip-rule="evenodd" d="M17.9633 20.0376C19.7253 20.0376 21.1594 21.395 21.1594 23.0634V27.3544C21.1594 27.713 21.4609 28.0003 21.8472 28.0087H24.6365C26.8345 28.0087 28.6213 26.3263 28.6213 24.2589V12.0889C28.6111 11.3774 28.2555 10.7078 27.6453 10.2628L17.997 2.92785C16.7018 1.94995 14.8901 1.94995 13.5906 2.93064L4.00818 10.26C3.37452 10.719 3.01891 11.3886 3.01159 12.1126V24.2589C3.01159 26.3263 4.79842 28.0087 6.99647 28.0087H9.81208C10.2087 28.0087 10.5306 27.7088 10.5306 27.3405C10.5306 27.2596 10.5409 27.1787 10.5584 27.1019V23.0634C10.5584 21.4047 11.9838 20.0488 13.7326 20.0376H17.9633ZM24.6365 30.1012H21.8209C20.2082 30.0649 18.9643 28.8583 18.9643 27.3544V23.0634C18.9643 22.5486 18.515 22.1301 17.9633 22.1301H13.7399C13.1999 22.1329 12.7535 22.5528 12.7535 23.0634V27.3405C12.7535 27.4451 12.7389 27.5456 12.7082 27.6404C12.5501 29.0215 11.3121 30.1012 9.81208 30.1012H6.99647C3.58818 30.1012 0.81647 27.48 0.81647 24.2589V12.1028C0.831104 10.7162 1.50135 9.44672 2.65891 8.61111L12.2223 1.29429C14.3282 -0.296017 17.2623 -0.296017 19.3638 1.2915L28.996 8.6153C30.1272 9.43696 30.7974 10.7036 30.8165 12.0735V24.2589C30.8165 27.48 28.0448 30.1012 24.6365 30.1012Z" fill="white"/>
</svg>
