<svg width="30" height="30" viewBox="0 0 30 30" fill="none" xmlns="http://www.w3.org/2000/svg">
<path fill-rule="evenodd" clip-rule="evenodd" d="M6.53846 16.9231C12.7985 16.9231 13.0769 19.0462 13.0769 23.4615C13.0769 25.6738 13.0769 27.2477 12.1477 28.4C11.0785 29.7277 9.13231 30 6.53846 30C3.94462 30 1.99846 29.7277 0.929231 28.4C0 27.2477 0 25.6754 0 23.5L1.15385 23.4615H0C0 19.0462 0.278462 16.9231 6.53846 16.9231ZM23.4615 16.9231C29.7215 16.9231 30 19.0462 30 23.4615C30 25.6738 30 27.2477 29.0708 28.4C28.0015 29.7277 26.0554 30 23.4615 30C20.8677 30 18.9215 29.7277 17.8523 28.4C16.9231 27.2477 16.9231 25.6754 16.9231 23.5L18.0769 23.4615H16.9231C16.9231 19.0462 17.2015 16.9231 23.4615 16.9231ZM6.85563 19.2315L6.53846 19.2308C2.52465 19.2308 2.31882 19.5188 2.30826 22.8878L2.30891 24.2003C2.3162 25.5402 2.36725 26.5081 2.72462 26.9538C3.13231 27.4585 4.34308 27.6923 6.53846 27.6923C8.73385 27.6923 9.94462 27.4569 10.3523 26.9523C10.7692 26.4338 10.7692 25.2031 10.7692 23.4985C10.7692 19.652 10.7692 19.2496 6.85563 19.2315ZM23.7787 19.2315L23.4615 19.2308C19.4477 19.2308 19.2419 19.5188 19.2313 22.8878L19.232 24.2003C19.2393 25.5402 19.2903 26.5081 19.6477 26.9538C20.0554 27.4585 21.2662 27.6923 23.4615 27.6923C25.6569 27.6923 26.8677 27.4569 27.2754 26.9523C27.6923 26.4338 27.6923 25.2031 27.6923 23.4985C27.6923 19.652 27.6923 19.2496 23.7787 19.2315ZM6.53846 0C12.7985 0 13.0769 2.12308 13.0769 6.53846C13.0769 8.75077 13.0769 10.3246 12.1477 11.4769C11.0785 12.8046 9.13231 13.0769 6.53846 13.0769C3.94462 13.0769 1.99846 12.8046 0.929231 11.4769C0 10.3246 0 8.75231 0 6.57692L1.15385 6.53846H0C0 2.12308 0.278462 0 6.53846 0ZM23.4615 0C29.7215 0 30 2.12308 30 6.53846C30 8.75077 30 10.3246 29.0708 11.4769C28.0015 12.8046 26.0554 13.0769 23.4615 13.0769C20.8677 13.0769 18.9215 12.8046 17.8523 11.4769C16.9231 10.3246 16.9231 8.75231 16.9231 6.57692L18.0769 6.53846H16.9231C16.9231 2.12308 17.2015 0 23.4615 0ZM6.85563 2.30838L6.53846 2.30769C2.52465 2.30769 2.31882 2.59571 2.30826 5.96469L2.30891 7.2772C2.3162 8.61714 2.36725 9.58506 2.72462 10.0308C3.13231 10.5354 4.34308 10.7692 6.53846 10.7692C8.73385 10.7692 9.94462 10.5338 10.3523 10.0292C10.7692 9.51077 10.7692 8.28 10.7692 6.57539C10.7692 2.72892 10.7692 2.32649 6.85563 2.30838ZM23.7787 2.30838L23.4615 2.30769C19.4477 2.30769 19.2419 2.59571 19.2313 5.96469L19.232 7.2772C19.2393 8.61714 19.2903 9.58506 19.6477 10.0308C20.0554 10.5354 21.2662 10.7692 23.4615 10.7692C25.6569 10.7692 26.8677 10.5338 27.2754 10.0292C27.6923 9.51077 27.6923 8.28 27.6923 6.57539C27.6923 2.72892 27.6923 2.32649 23.7787 2.30838Z" fill="white"/>
</svg>
